<svg xmlns="http://www.w3.org/2000/svg" viewBox="0 0 1019 175">
  <path fill="#7D944C" d="M48.747 174.85c-10.974 0-19.244-3.28-24.805-9.85-5.561-6.58-8.342-16.36-8.342-29.36V75.19l4.55 4.55H0V60.45l20.584-6.28-4.984 6.28V30.34l36.837-6.72v36.83l-3.69-4.76h32.72l-.65 24.05h-32.07l3.69-4.55v55.46c0 6.07.94 10.48 2.81 13.22 1.88 2.74 4.77 4.12 8.67 4.12 2.17 0 4.59-.33 7.26-.98 2.67-.65 5.67-1.55 8.99-2.71l6.72 19.72c-13.15 7.22-25.86 10.83-38.14 10.83Zm95.34-23.83-2.39-3.03 15.6 5.41v18.64h-63.26V153.4l15.6-5.41-2.39 3.03V78l2.17 2.17-15.38-5.2V56.55l50.05-1.73v96.2Zm-19.07-109.85c-6.21 0-11.23-1.77-15.06-5.31-3.83-3.54-5.74-8.63-5.74-15.27 0-6.94 1.99-12.1 5.96-15.5 3.97-3.39 8.99-5.09 15.06-5.09 5.92 0 10.83 1.66 14.73 4.99 3.9 3.32 5.85 8.52 5.85 15.6 0 6.79-1.99 11.91-5.96 15.38-3.97 3.47-8.92 5.2-14.84 5.2Zm38.78 132.278v-18.64l17.55-5.85-4.33 6.5V25.898l2.38 3.9-15.6-5.2V6.178l50.05-2.17v99.24l-5.85-5.2h26.65l-8.66 4.11 17.55-26.21 2.6 3.68-13.87-3.03v-18.42l55.25-2.17v18.64l-17.33 4.33 9.53-5.42-26.43 38.14.65-9.1 26.65 52.21-4.99-4.76 15.6 4.76v18.64h-39l-25.35-53.52 5.2 2.38h-24.05l5.85-2.38v35.53l-3.46-6.71 15.81 6.06v18.64h-62.4Zm233.57-19.608-4.98-7.37 18.2 6.93v18.64l-42.04 1.95-4.55-20.59 2.17.65c-5.2 6.94-11.09 12.14-17.66 15.6-6.57 3.47-13.54 5.2-20.91 5.2-9.96 0-18.02-3.14-24.16-9.42-6.13-6.28-9.2-14.92-9.2-25.89 0-8.09 1.77-14.63 5.31-19.61 3.53-4.98 8.77-8.63 15.7-10.94 6.94-2.31 15.6-3.47 26-3.47h21.24l-1.95 2.17V96.64c0-6.07-1.41-10.44-4.23-13.11-2.81-2.67-7.11-4.01-12.89-4.01-2.6 0-5.45.22-8.56.65-3.1.43-6.39 1.16-9.86 2.17l3.25-3.69-3.25 16.69h-22.53l-1.73-34.02c10.54-2.89 20.18-5.02 28.92-6.39 8.74-1.37 16.72-2.06 23.94-2.06 14.45 0 25.35 3 32.72 8.99 7.37 6 11.05 15.35 11.05 28.06v63.92Zm-66.3-18.42c0 4.62 1.08 8.05 3.25 10.29 2.17 2.24 4.91 3.36 8.23 3.36 3.04 0 6.25-.87 9.64-2.6 3.4-1.73 6.61-4.19 9.65-7.37l-1.3 4.99V120.9l2.16 2.39h-15.38c-6.07 0-10.29.94-12.67 2.81-2.39 1.88-3.58 4.99-3.58 9.32Zm165.927-9.66-23.066-39.055 3.9-16.677 17.397 1.77 28.75 33.73-26.98 20.231Zm-44.362.343-28.75-20.576 29.11-34.434 17.037-1.065 3.9 16.677-21.297 39.398Zm.36-55.01-43.657-7.094 10.992-33.37 40.463 15.612 7.11 16.694-14.908 8.158Zm20.576-13.483L460.79 46.241 455.826 4.37l34.78-.36-3.195 42.593-13.843 11.008Zm21.657 14.187L481.382 61.51l6.029-14.907 39.398-17.037 11.37 33.714-42.954 8.518Zm108.262 101.645c-10.98 0-19.25-3.28-24.81-9.85-5.56-6.58-8.34-16.36-8.34-29.36v-60.45l4.55 4.55h-20.15v-19.29l20.58-6.28-4.98 6.28v-30.11l36.83-6.72v36.83l-3.68-4.76h32.71l-.65 24.05h-32.06l3.68-4.55v55.46c0 6.07.94 10.48 2.82 13.22 1.87 2.74 4.76 4.12 8.66 4.12 2.17 0 4.59-.33 7.26-.98 2.67-.65 5.67-1.55 8.99-2.71l6.72 19.72c-13.14 7.22-25.86 10.83-38.13 10.83Zm100.1-120.572c17.91 0 31.74 5.09 41.49 15.28 9.75 10.18 14.62 24.73 14.62 43.65 0 13.15-2.42 24.41-7.26 33.8-4.83 9.39-11.73 16.61-20.69 21.67-8.95 5.06-19.64 7.58-32.06 7.58-17.77 0-31.46-5.09-41.06-15.27-9.61-10.18-14.41-24.74-14.41-43.66 0-13.29 2.35-24.63 7.04-34.02 4.7-9.39 11.49-16.57 20.37-21.56 8.88-4.98 19.53-7.47 31.96-7.47Zm-1.52 25.78c-6.93 0-11.92 2.78-14.95 8.35-3.03 5.56-4.55 14.62-4.55 27.19 0 12.56 1.48 21.52 4.44 26.86 2.96 5.35 7.77 8.02 14.41 8.02 4.77 0 8.59-1.26 11.48-3.79 2.89-2.53 5.02-6.43 6.4-11.7 1.37-5.27 2.05-12.03 2.05-20.26 0-12.42-1.51-21.31-4.55-26.65-3.03-5.34-7.94-8.02-14.73-8.02Zm67.82 93.39V153.4l17.55-5.85-4.34 5.2V75.19l4.34 5.85-17.55-6.07V56.55l41.81-1.95 4.55 20.37-4.55-1.52c6.94-6.93 14.3-12.09 22.1-15.49 7.8-3.39 15.24-5.09 22.32-5.09 9.68 0 17.84 3.11 24.48 9.32 6.65 6.21 9.9 15.67 9.75 28.38v62.18l-3.03-4.98 16.25 5.63v18.64h-49.83V98.15c0-6.06-1.3-10.5-3.9-13.32-2.6-2.82-6-4.23-10.19-4.23-3.32 0-6.89.87-10.72 2.6-3.83 1.74-7.62 4.26-11.38 7.59l2.39-4.99v67.6l-3.25-5.2 14.51 5.2v18.64h-61.31Zm194.56 2.81c-10.83 0-20.36-2.2-28.6-6.61-8.23-4.4-14.59-10.97-19.06-19.71-4.48-8.74-6.72-19.54-6.72-32.39 0-13.29 2.38-24.63 7.15-34.02 4.77-9.39 11.56-16.61 20.37-21.67 8.81-5.05 19.28-7.58 31.41-7.58 11.7 0 21.24 2.24 28.6 6.72 7.37 4.47 12.75 10.65 16.15 18.52 3.39 7.87 5.09 16.72 5.09 26.54 0 2.75-.11 5.56-.33 8.45-.21 2.89-.68 5.85-1.41 8.89h-76.91v-20.15h45.93l-5.2 3.68c.14-5.63-.22-10.44-1.08-14.41-.87-3.97-2.42-7-4.66-9.1-2.24-2.09-5.31-3.14-9.21-3.14-4.77 0-8.45 1.48-11.05 4.44-2.6 2.96-4.44 6.83-5.53 11.59-1.08 4.77-1.62 9.97-1.62 15.6 0 6.94.72 13.22 2.17 18.85 1.44 5.64 4.04 10.15 7.8 13.55 3.75 3.39 8.95 5.09 15.6 5.09 4.47 0 9.42-.83 14.84-2.49 5.42-1.67 11.08-4.09 17.01-7.26l12.13 19.06c-8.67 5.93-17.48 10.33-26.43 13.22-8.96 2.89-17.77 4.33-26.44 4.33Z"/>
</svg>
